<?xml version="1.0" standalone="no"?>
<!DOCTYPE svg PUBLIC "-//W3C//DTD SVG 20010904//EN"
 "http://www.w3.org/TR/2001/REC-SVG-20010904/DTD/svg10.dtd">
<svg version="1.0" xmlns="http://www.w3.org/2000/svg"
 width="720.000000pt" height="720.000000pt" viewBox="0 0 720.000000 720.000000"
 preserveAspectRatio="xMidYMid meet">
<metadata>
Created by potrace 1.11, written by Peter Selinger 2001-2013
</metadata>
<g transform="translate(0.000000,720.000000) scale(0.100000,-0.100000)"
fill="#000000" stroke="none">
<path d="M1260 4593 c-318 -50 -589 -241 -744 -524 -154 -281 -154 -667 0
-948 138 -251 362 -428 639 -503 94 -25 300 -35 402 -18 495 79 853 497 853
995 0 480 -334 889 -805 986 -83 17 -271 24 -345 12z m400 -43 c169 -49 318
-137 441 -259 123 -124 211 -273 261 -446 20 -70 23 -102 23 -250 0 -148 -3
-180 -23 -250 -50 -173 -138 -322 -261 -446 -124 -123 -273 -211 -446 -261
-70 -20 -102 -23 -250 -23 -148 0 -180 3 -250 23 -173 50 -322 138 -446 261
-123 124 -211 273 -261 446 -20 70 -23 102 -23 250 0 148 3 180 23 250 107
368 392 637 762 720 99 22 352 14 450 -15z"/>
<path d="M1245 4399 c-317 -73 -562 -309 -635 -609 -27 -115 -27 -275 0 -390
65 -269 270 -489 544 -582 78 -27 109 -32 216 -36 103 -3 141 0 215 17 107 26
248 92 327 155 122 97 230 259 280 416 20 65 23 96 23 225 0 129 -3 160 -23
225 -50 157 -158 319 -280 416 -77 61 -219 129 -322 154 -92 21 -269 26 -345
9z"/>
<path d="M3405 4580 c-110 -24 -155 -40 -265 -96 -187 -95 -339 -253 -435
-449 -81 -166 -99 -245 -99 -440 0 -195 18 -274 99 -440 101 -208 252 -358
460 -461 158 -77 253 -99 440 -99 187 0 282 22 440 99 208 103 359 253 460
461 81 166 99 245 99 440 0 195 -18 274 -99 440 -101 208 -252 358 -460 460
-146 72 -244 96 -415 101 -108 3 -153 0 -225 -16z m439 -24 c358 -91 627 -361
723 -725 37 -138 37 -334 0 -472 -96 -365 -361 -630 -726 -726 -138 -37 -334
-37 -472 0 -365 96 -630 361 -726 726 -37 138 -37 334 0 472 106 403 429 691
839 749 95 13 255 3 362 -24z"/>
<path d="M3440 4386 c-87 -20 -130 -36 -210 -77 -192 -99 -334 -271 -402 -489
-20 -65 -23 -96 -23 -225 0 -129 3 -160 23 -225 71 -225 214 -395 417 -495
133 -66 195 -80 360 -80 165 0 227 14 360 80 203 100 346 270 417 495 20 65
23 96 23 225 0 129 -3 160 -23 225 -50 158 -145 303 -265 400 -71 59 -214 132
-302 156 -79 22 -301 28 -375 10z"/>
<path d="M5600 4581 c-467 -99 -800 -509 -800 -986 0 -555 448 -1004 1000
-1005 133 0 211 13 332 54 528 180 803 747 623 1286 -71 212 -247 423 -450
539 -88 51 -240 105 -335 120 -99 16 -273 12 -370 -8z m375 -12 c344 -58 649
-318 765 -654 52 -151 67 -364 36 -510 -86 -398 -383 -696 -781 -781 -84 -18
-265 -20 -355 -4 -577 101 -947 689 -785 1245 143 488 620 788 1120 704z"/>
<path d="M5671 4399 c-157 -26 -322 -112 -434 -226 -85 -87 -110 -121 -158
-215 -64 -127 -84 -212 -84 -363 0 -151 20 -236 84 -363 48 -94 73 -128 158
-215 115 -117 277 -200 443 -226 489 -79 940 307 940 804 0 501 -455 886 -949
804z"/>
</g>
</svg>
